<?xml version="1.0" encoding="UTF-8" standalone="no"?>
<!-- Created with Inkscape (http://www.inkscape.org/) -->

<svg
   xmlns:dc="http://purl.org/dc/elements/1.1/"
   xmlns:cc="http://creativecommons.org/ns#"
   xmlns:rdf="http://www.w3.org/1999/02/22-rdf-syntax-ns#"
   xmlns:svg="http://www.w3.org/2000/svg"
   xmlns="http://www.w3.org/2000/svg"
   xmlns:sodipodi="http://sodipodi.sourceforge.net/DTD/sodipodi-0.dtd"
   xmlns:inkscape="http://www.inkscape.org/namespaces/inkscape"
   width="744.09448819"
   height="1052.3622047"
   id="svg3854"
   version="1.1"
   inkscape:version="0.48.3.1 r9886"
   sodipodi:docname="New document 6">
  <defs
     id="defs3856" />
  <sodipodi:namedview
     id="base"
     pagecolor="#ffffff"
     bordercolor="#666666"
     borderopacity="1.0"
     inkscape:pageopacity="0.0"
     inkscape:pageshadow="2"
     inkscape:zoom="0.35"
     inkscape:cx="542.86698"
     inkscape:cy="520"
     inkscape:document-units="px"
     inkscape:current-layer="layer1"
     showgrid="false"
     inkscape:window-width="764"
     inkscape:window-height="613"
     inkscape:window-x="266"
     inkscape:window-y="215"
     inkscape:window-maximized="0" />
  <metadata
     id="metadata3859">
    <rdf:RDF>
      <cc:Work
         rdf:about="">
        <dc:format>image/svg+xml</dc:format>
        <dc:type
           rdf:resource="http://purl.org/dc/dcmitype/StillImage" />
        <dc:title></dc:title>
      </cc:Work>
    </rdf:RDF>
  </metadata>
  <g
     inkscape:label="Layer 1"
     inkscape:groupmode="layer"
     id="layer1">
    <rect
       style="fill:#d38d5f;fill-opacity:1;stroke:#e28644;stroke-width:5;stroke-miterlimit:4;stroke-opacity:1;stroke-dasharray:none"
       id="rect3862"
       width="111.42857"
       height="1057.1428"
       x="2.8571429"
       y="0.93361121" />
    <rect
       style="fill:#deaa87;fill-opacity:1;stroke:#cd8069;stroke-width:5;stroke-miterlimit:4;stroke-opacity:1;stroke-dasharray:none"
       id="rect3862-5"
       width="111.42857"
       height="1057.1428"
       x="115.71427"
       y="0.93363082" />
    <rect
       style="fill:#deaa87;fill-opacity:1;stroke:#c29d72;stroke-width:5;stroke-miterlimit:4;stroke-opacity:1;stroke-dasharray:none"
       id="rect3862-6"
       width="111.42857"
       height="1057.1428"
       x="230"
       y="0.93362647" />
    <path
       sodipodi:type="arc"
       style="fill:#a05a2c;fill-opacity:1;stroke:#a05a2c;stroke-width:5;stroke-miterlimit:4;stroke-opacity:1;stroke-dasharray:none"
       id="path4399"
       sodipodi:cx="120"
       sodipodi:cy="286.64789"
       sodipodi:rx="48.57143"
       sodipodi:ry="45.714287"
       d="m 168.57143,286.64789 a 48.57143,45.714287 0 1 1 -97.14286,0 48.57143,45.714287 0 1 1 97.14286,0 z"
       transform="translate(100,-48.571429)" />
    <path
       sodipodi:type="arc"
       style="fill:#a05a2c;fill-opacity:1;stroke:#a05a2c;stroke-width:5;stroke-miterlimit:4;stroke-opacity:1;stroke-dasharray:none"
       id="path4401"
       sodipodi:cx="187.14285"
       sodipodi:cy="993.79077"
       sodipodi:rx="12.857142"
       sodipodi:ry="18.571428"
       d="m 200,993.79077 a 12.857142,18.571428 0 1 1 -25.71429,0 12.857142,18.571428 0 1 1 25.71429,0 z" />
    <rect
       style="fill:#deaa87;fill-opacity:1;stroke:#b48f7c;stroke-width:5;stroke-miterlimit:4;stroke-opacity:1;stroke-dasharray:none"
       id="rect3862-3"
       width="111.42857"
       height="1057.1428"
       x="-453.57141"
       y="0.93368095"
       transform="scale(-1,1)" />
    <rect
       style="fill:#deaa87;fill-opacity:1;stroke:#cb9063;stroke-width:5;stroke-miterlimit:4;stroke-opacity:1;stroke-dasharray:none"
       id="rect3862-5-5"
       width="111.42857"
       height="1057.1428"
       x="-566.42853"
       y="0.93355888"
       transform="scale(-1,1)" />
    <rect
       style="fill:#deaa87;fill-opacity:1;stroke:#e4915f;stroke-width:5;stroke-miterlimit:4;stroke-opacity:1;stroke-dasharray:none"
       id="rect3862-6-4"
       width="111.42857"
       height="1057.1428"
       x="-680.71429"
       y="0.93355888"
       transform="scale(-1,1)" />
    <path
       transform="matrix(-1,0,0,1,579.28572,485.71428)"
       sodipodi:type="arc"
       style="fill:#a05a2c;fill-opacity:1;stroke:#a05a2c;stroke-width:5;stroke-miterlimit:4;stroke-opacity:1;stroke-dasharray:none"
       id="path4399-7"
       sodipodi:cx="120"
       sodipodi:cy="286.64789"
       sodipodi:rx="48.57143"
       sodipodi:ry="45.714287"
       d="m 168.57143,286.64789 a 48.57143,45.714287 0 1 1 -97.14286,0 48.57143,45.714287 0 1 1 97.14286,0 z" />
    <path
       transform="matrix(-1,0,0,1,713.57138,-928.57148)"
       sodipodi:type="arc"
       style="fill:#a05a2c;fill-opacity:1;stroke:#a05a2c;stroke-width:5;stroke-miterlimit:4;stroke-opacity:1;stroke-dasharray:none"
       id="path4401-9"
       sodipodi:cx="187.14285"
       sodipodi:cy="993.79077"
       sodipodi:rx="12.857142"
       sodipodi:ry="18.571428"
       d="m 200,993.79077 a 12.857142,18.571428 0 1 1 -25.71429,0 12.857142,18.571428 0 1 1 25.71429,0 z" />
    <rect
       style="fill:#d38d5f;fill-opacity:1;stroke:#a05a2c;stroke-width:5;stroke-miterlimit:4;stroke-opacity:1;stroke-dasharray:none"
       id="rect4433"
       width="65.714287"
       height="1054.2858"
       x="682.85712"
       y="3.7907541" />
    <path
       style="fill:#deaa87;stroke:#e6ba74;stroke-width:1px;stroke-linecap:butt;stroke-linejoin:miter;stroke-opacity:1"
       d="M 271.42857,1052.3622 280,-1.9235317 c 0,0 -65.71429,85.7142857 0,194.2857117 65.71429,108.57143 -8.57143,860.00002 -8.57143,860.00002 z"
       id="path4435"
       inkscape:connector-curvature="0" />
    <path
       style="fill:#deaa87;stroke:#e6ba74;stroke-width:1px;stroke-linecap:butt;stroke-linejoin:miter;stroke-opacity:1"
       d="M 386.74819,1062.3622 395.31962,8.0764755 c 0,0 -65.71429,85.7142855 0,194.2857145 65.71429,108.57143 -8.57143,860.00001 -8.57143,860.00001 z"
       id="path4435-0"
       inkscape:connector-curvature="0" />
    <path
       style="fill:#deaa87;stroke:#e6ba74;stroke-width:1px;stroke-linecap:butt;stroke-linejoin:miter;stroke-opacity:1"
       d="M 612.46247,1053.7907 621.0339,-0.494953 c 0,0 -65.71429,85.714286 0,194.285713 65.71429,108.57143 -8.57143,859.99994 -8.57143,859.99994 z"
       id="path4435-1"
       inkscape:connector-curvature="0" />
    <path
       style="fill:#d38d5f;stroke:none;stroke-width:1.13890110999999994px;stroke-linecap:butt;stroke-linejoin:miter;stroke-opacity:1"
       d="m 34.036873,1052.6477 c 0,0 61.857794,-1040.746818 0,-1007.881128 C -27.820923,77.632262 68.831884,1058.1254 68.831884,1058.1254 L 88.162442,47.505379 c 0,0 -7.732222,-109.5523 7.732225,2.738809 C 111.35913,162.53529 111.35913,1060.8641 111.35913,1060.8641"
       id="path4462"
       inkscape:connector-curvature="0" />
    <path
       style="fill:#d38d5f;stroke:#c9915f;stroke-width:1px;stroke-linecap:butt;stroke-linejoin:miter;stroke-opacity:1"
       d="m 11.428571,1052.3622 c 0,0 25.714286,-1080.000017 5.714286,-1051.42858881 C -2.8571429,29.50504 11.428571,1052.3622 11.428571,1052.3622 z"
       id="path4464"
       inkscape:connector-curvature="0" />
  </g>
</svg>
